# xmcd CD database file
#
# Track frame offsets:
#	150
#	82407
#	109467
#	139150
#	161385
#
# Disc length: 2424 seconds
#
# Revision: 0
# Processed by: cddbd v1.5.2PL0 Copyright (c) Steve Scherf et al.
# Submitted via: CDex 1.51
#
DISCID=43097605
DTITLE=祖古烏金仁波切 - 大圓滿前行文The Preliminary Practice of Great Perfection
DYEAR=2004
DGENRE=New Age
TTITLE0=大圓滿前行文 The Preliminary Practice of Great Perfection
TTITLE1=三師上身祈請文 Three Buddha-Bodies Guru Paryer
TTITLE2=蓮師心咒 The Mantra of The Guru Rinpoche
TTITLE3=佛法長久住世祈請文 Prayer to Preserve the Palyul Tradition
TTITLE4=圓滿 Perfection
EXTD=YEAR: 2004
EXTT0=
EXTT1=
EXTT2=
EXTT3=
EXTT4=
PLAYORDER=
